<?xml version="1.0" encoding="utf-8"?>
<!-- Generator: Adobe Illustrator 15.0.2, SVG Export Plug-In . SVG Version: 6.00 Build 0)  -->
<!DOCTYPE svg PUBLIC "-//W3C//DTD SVG 1.1//EN" "http://www.w3.org/Graphics/SVG/1.1/DTD/svg11.dtd">
<svg version="1.1" xmlns="http://www.w3.org/2000/svg" xmlns:xlink="http://www.w3.org/1999/xlink" x="0px" y="0px"
	 width="137.351px" height="102.738px" viewBox="0 0 137.351 102.738" enable-background="new 0 0 137.351 102.738"
	 xml:space="preserve">
<g>
	<path d="M85.509,59.553c13.184-5.171,30.347-8.184,51.841-8.184c-21.495,0-38.658-3.013-51.841-8.184V31.894
		l-31.96-18.453C52.096,9.156,51.369,4.652,51.369,0c0,4.759-0.661,9.362-1.872,13.736l-31.45,18.158v16.207
		C12.431,50.208,6.352,51.369,0,51.369c6.352,0,12.431,1.161,18.047,3.269v16.207l31.45,18.158
		c1.211,4.374,1.872,8.977,1.872,13.736c0-4.652,0.727-9.156,2.18-13.441l31.96-18.453V59.553z M82.674,33.531v8.484
		c-13.709-5.967-22.729-14.421-27.416-24.313L82.674,33.531z M69.893,52.536c-0.262-0.224-0.626-0.335-1.095-0.335
		c-0.311,0-0.648,0.055-1.01,0.164s-0.716,0.277-1.061,0.502h-0.051v-1.077c0.243-0.12,0.566-0.229,0.972-0.328
		c0.405-0.099,0.797-0.149,1.176-0.149c0.783,0,1.396,0.189,1.841,0.566c0.444,0.378,0.667,0.89,0.667,1.536
		c0,0.291-0.037,0.562-0.11,0.813c-0.074,0.251-0.182,0.49-0.326,0.715c-0.133,0.212-0.29,0.42-0.469,0.625
		c-0.18,0.205-0.397,0.433-0.654,0.682c-0.366,0.359-0.744,0.707-1.133,1.043c-0.39,0.337-0.753,0.649-1.092,0.936h4.106v0.876
		h-5.168v-1.071c0.359-0.308,0.719-0.615,1.08-0.923c0.36-0.308,0.696-0.614,1.007-0.918c0.656-0.636,1.105-1.141,1.348-1.515
		c0.243-0.374,0.364-0.778,0.364-1.212C70.285,53.07,70.154,52.76,69.893,52.536z M50.288,44.954h1.63v1.5h-1.63V44.954z
		 M51.826,47.892v8.59H50.38v-8.59H51.826z M54.148,50.76c0-0.933,0.123-1.77,0.369-2.511s0.605-1.375,1.077-1.903
		c0.451-0.502,1.011-0.887,1.681-1.154c0.669-0.266,1.398-0.4,2.188-0.4c0.82,0,1.558,0.135,2.211,0.404
		c0.654,0.269,1.209,0.652,1.665,1.15c0.467,0.513,0.824,1.141,1.073,1.884c0.249,0.744,0.373,1.587,0.373,2.53
		s-0.127,1.788-0.38,2.534c-0.254,0.746-0.609,1.368-1.065,1.865c-0.472,0.518-1.029,0.908-1.672,1.169
		c-0.644,0.261-1.378,0.392-2.204,0.392c-0.805,0-1.537-0.133-2.195-0.4c-0.659-0.267-1.219-0.653-1.681-1.161
		c-0.461-0.507-0.816-1.13-1.065-1.869S54.148,51.708,54.148,50.76z M20.882,33.531l27.336-15.783
		C43.421,30.776,33.49,41.313,20.882,46.932V33.531z M46.077,52.306c-0.249-0.241-0.627-0.428-1.134-0.562
		c-0.385-0.103-0.801-0.187-1.25-0.254c-0.448-0.066-0.924-0.151-1.426-0.253c-1.015-0.215-1.768-0.583-2.257-1.104
		c-0.489-0.521-0.734-1.199-0.734-2.034c0-0.959,0.405-1.745,1.215-2.357c0.81-0.612,1.838-0.919,3.083-0.919
		c0.805,0,1.543,0.077,2.215,0.231c0.672,0.154,1.267,0.343,1.784,0.569v1.8h-0.107c-0.436-0.369-1.009-0.676-1.719-0.919
		c-0.71-0.244-1.437-0.365-2.18-0.365c-0.815,0-1.47,0.169-1.965,0.507c-0.495,0.338-0.742,0.774-0.742,1.308
		c0,0.477,0.123,0.851,0.369,1.123c0.246,0.272,0.679,0.479,1.299,0.623c0.328,0.072,0.795,0.159,1.4,0.261s1.118,0.208,1.538,0.315
		c0.851,0.226,1.492,0.566,1.922,1.023c0.431,0.456,0.646,1.095,0.646,1.915c0,0.446-0.104,0.887-0.312,1.323
		c-0.208,0.436-0.499,0.805-0.873,1.107c-0.41,0.328-0.888,0.584-1.435,0.769c-0.546,0.185-1.203,0.277-1.972,0.277
		c-0.826,0-1.568-0.077-2.227-0.23s-1.329-0.382-2.011-0.685v-1.907h0.108c0.579,0.482,1.249,0.854,2.007,1.115
		c0.758,0.261,1.471,0.392,2.138,0.392c0.943,0,1.678-0.177,2.203-0.531c0.526-0.354,0.789-0.825,0.789-1.415
		C46.45,52.921,46.326,52.547,46.077,52.306z M20.882,69.208V55.807c12.608,5.619,22.54,16.155,27.336,29.184L20.882,69.208z
		 M55.258,85.036c4.688-9.892,13.707-18.345,27.416-24.313v8.484L55.258,85.036z"/>
	<path d="M59.47,55.405c1.138,0,2.044-0.398,2.719-1.196c0.674-0.797,1.011-1.947,1.011-3.449
		c0-1.487-0.333-2.634-1-3.441s-1.576-1.211-2.73-1.211c-1.164,0-2.078,0.403-2.742,1.211s-0.996,1.955-0.996,3.441
		c0,1.502,0.338,2.652,1.015,3.449S58.332,55.405,59.47,55.405z"/>
</g>
</svg>
